# xmcd
#
# Track frame offsets:
#	150
#	17992
#	34598
#	50593
#	68670
#	83636
#	96376
#	111630
#	127315
#	145306
#
# Disc length: 2119 seconds
# Revision: 0
# Processed by: cddbd v1.5.2PL0 Copyright (c) Steve Scherf et al.
# Submitted via: dBpowerAMP V12.0
#
DISCID=9308450a
DTITLE=Victoria Shaw - Bring on The Love
DYEAR=2008
DGENRE=Country
TTITLE0=Bring On The Love
TTITLE1=Eastbound Line
TTITLE2=In Valentine
TTITLE3=You Will
TTITLE4=There's A Song In There Somewhere
TTITLE5=Who's To Say
TTITLE6=Every Other Day
TTITLE7=You Can't Make Me
TTITLE8=Never Alone
TTITLE9=God and Me
EXTD=
EXTT0=
EXTT1=
EXTT2=
EXTT3=
EXTT4=
EXTT5=
EXTT6=
EXTT7=
EXTT8=
EXTT9=
PLAYORDER=
